<svg preserveAspectRatio="none" overflow="visible" style="display: block;" width="786.831" height="670.805" viewBox="0 0 786.831 670.805" fill="none" xmlns="http://www.w3.org/2000/svg">
<path id="image 3 (Traced)" opacity="0.5" fill-rule="evenodd" clip-rule="evenodd" d="M280.206 1.84726C276.464 3.53175 260.994 14.0995 208.262 50.995C197.262 58.6912 177.012 72.8172 163.262 82.3861C149.512 91.955 131.062 104.813 122.262 110.957C113.462 117.103 99.9619 126.517 92.2619 131.879C7.46689 190.917 6.32788 191.746 3.34188 196.532C1.38888 199.662 0.283884 202.927 0.0128843 206.373C-0.310116 210.479 5.34488 237.096 27.7399 336.878C46.1199 418.773 56.6519 463.767 58.1219 466.675C60.7189 471.811 67.1969 477.109 72.5539 478.475C74.5929 478.995 88.6369 480.568 103.762 481.97C127.481 484.169 168.104 488.028 230.262 493.988C246.495 495.544 276.187 498.372 323.262 502.846C337.562 504.204 356.237 505.988 364.762 506.809C373.287 507.631 391.962 509.415 406.262 510.774C481.734 517.945 481.918 517.964 482.852 518.908C483.505 519.569 509.075 573.616 530.806 620.27C551.543 664.79 551.855 665.333 558.767 668.825C561.669 670.293 564.659 670.805 570.321 670.805C582.545 670.805 586.623 667.913 595.466 652.969C600.461 644.529 609.459 629.706 711.259 462.225C785.102 340.738 783.883 342.761 785.414 339.139C788.389 332.103 786.495 320.631 781.464 315.21C780.253 313.905 757.662 292.299 731.262 267.199C704.862 242.098 678.537 217.052 672.762 211.542C649.605 189.444 634.666 175.23 622.762 163.967C607.19 149.236 592.627 135.378 563.408 107.489C550.847 95.4994 538.833 84.5224 536.711 83.0946C534.588 81.6677 520.794 76.4705 506.057 71.5469C491.32 66.6222 459.912 56.0475 436.262 48.0461C298.78 1.53314 294.002 -0.0235289 288.878 0.000252288C286.339 0.0121429 282.437 0.843492 280.206 1.84726ZM384.384 80.8165C403.017 87.1295 435.362 98.0351 456.262 105.053C496.52 118.569 497.758 119.17 497.767 125.187C497.771 128.14 495.666 162.23 486.815 302.578L482.948 363.899L480.382 366.44C477.185 369.609 471.617 369.903 468.828 367.051C467.788 365.987 463.007 356.2 458.203 345.301C453.399 334.401 446.894 319.686 443.747 312.602C440.6 305.517 434.077 290.802 429.251 279.902C414.358 246.262 404.046 223.024 376.269 160.501C364.284 133.525 351.553 104.987 347.978 97.0848C344.403 89.1826 341.273 80.8413 341.022 78.5474C340.632 74.9674 340.954 74.0231 343.311 71.859C344.82 70.4737 347.056 69.3402 348.28 69.3402C349.504 69.3402 365.751 74.5046 384.384 80.8165ZM293.921 94.8791C294.837 95.8195 299.414 105.284 304.093 115.912C308.772 126.539 313.497 137.24 314.594 139.693C315.69 142.145 324.975 163.102 335.227 186.264C345.479 209.426 354.481 229.714 355.23 231.349C355.979 232.984 360.944 244.132 366.263 256.121C392.864 316.087 401.112 334.664 419.279 375.523C423.52 385.06 427.338 393.755 427.765 394.845C428.192 395.935 429.672 399.279 431.056 402.276C443.114 428.411 454.762 456.143 454.762 458.718C454.762 460.829 453.881 462.639 452.012 464.367C449.476 466.712 448.755 466.867 442.762 466.351C433.168 465.524 323.481 455.097 300.262 452.804C289.262 451.717 258.887 448.802 232.762 446.326C115.398 435.201 125.832 436.377 123.266 433.988C118.036 429.119 116.345 433.202 163.285 337.374C168.624 326.474 175.136 313.097 177.757 307.647C180.378 302.197 185.671 291.273 189.52 283.371C193.368 275.468 199.774 262.314 203.756 254.14C207.738 245.965 213.808 233.48 217.247 226.395C220.685 219.31 229.913 200.359 237.754 184.282C245.594 168.205 254.154 150.592 256.776 145.143C276.423 104.298 281.544 94.5056 283.848 93.374C286.858 91.8956 291.722 92.6219 293.921 94.8791ZM211.512 116.499C212.75 117.872 213.762 120.196 213.761 121.665C213.761 123.133 210.792 130.354 207.164 137.711C203.536 145.068 195.488 161.566 189.28 174.374C178.703 196.193 148.176 258.9 126.379 303.581C121.09 314.423 116.762 323.422 116.762 323.578C116.762 324.395 97.6359 362.093 96.5839 363.349C93.1409 367.46 84.7179 366.252 82.8479 361.38C82.3529 360.088 77.1749 337.66 71.3419 311.539C65.5099 285.42 60.2969 262.265 59.7589 260.085C56.6599 247.53 51.7619 224.616 51.7619 222.67C51.7619 218.776 54.1989 216.563 72.4969 203.844C82.2679 197.052 97.9119 186.166 107.262 179.653C116.612 173.14 132.812 161.858 143.262 154.583C153.712 147.307 170.433 135.624 180.42 128.622C190.407 121.618 199.857 115.216 201.42 114.396C204.986 112.522 208.606 113.277 211.512 116.499ZM619.075 226.608C627.48 234.457 663.911 268.976 685.262 289.323C691.862 295.612 702.647 305.875 709.229 312.13C715.811 318.384 723.092 325.307 725.409 327.513C727.727 329.72 729.924 332.711 730.291 334.162C731.097 337.344 730.467 338.488 703.856 382.223C686.739 410.353 684.072 414.239 681.25 415.162C677.826 416.281 674.037 415.403 672.063 413.031C671.449 412.293 665.247 397.198 658.281 379.486C651.315 361.774 644.109 343.492 642.267 338.86C635.936 322.935 617.007 274.917 607.891 251.655C602.87 238.844 598.762 227.551 598.762 226.559C598.762 223.555 604.194 218.963 607.748 218.963C610.29 218.963 612.449 220.421 619.075 226.608ZM552.525 244.974C553.687 246.201 557.79 255.23 561.644 265.039C565.497 274.849 575.684 300.711 584.282 322.51C592.879 344.31 606.931 379.981 615.508 401.781C624.085 423.58 634.174 449.219 637.927 458.757C641.68 468.294 644.753 476.844 644.756 477.757C644.763 479.818 581.259 584.497 578.942 586.242C576.861 587.81 572.306 587.929 569.586 586.487C567.404 585.33 565.142 580.789 539.519 526.137L523.492 491.951L524.129 477.583C524.479 469.681 525.436 452.96 526.255 440.425C527.074 427.891 529.125 395.34 530.812 368.091C538.645 241.585 538.125 248.003 540.751 245.234C543.876 241.937 549.531 241.812 552.525 244.974Z" fill="#1C443D"/>
</svg>
